<?xml version="1.0" encoding="utf-8"?>
<!-- Generator: Adobe Illustrator 25.0.0, SVG Export Plug-In . SVG Version: 6.00 Build 0)  -->
<svg version="1.1" id="圖層_1" xmlns="http://www.w3.org/2000/svg" xmlns:xlink="http://www.w3.org/1999/xlink" x="0px" y="0px"
	 viewBox="0 0 1907 257.22" style="enable-background:new 0 0 1907 257.22;" xml:space="preserve">
<style type="text/css">
	.st0{fill:#F2F2F2;}
	.st1{fill:none;stroke:#F2F2F2;stroke-width:5;stroke-linejoin:round;stroke-miterlimit:10;}
	.st2{fill:none;stroke:#F2F2F2;stroke-width:5;stroke-miterlimit:10;}
	.st3{font-family:'MicrosoftJhengHeiBold';}
	.st4{font-size:36px;}
	.st5{font-family:'ArialMT';}
</style>
<g>
	<g>
		<path class="st0" d="M43.6,52.98c1.75,0,4.37,0.73,7.87,2.18C54.49,56.3,56,57.67,56,59.28c0,0.72-0.24,1.62-0.71,2.7
			c-0.79,1.8-1.18,5.05-1.18,9.73c0,10.45-1.77,19.88-5.3,28.29c-3.03,8.16-7.58,15.55-13.64,22.17
			c-5.56,6.12-12.38,11.09-20.46,14.91c-7.07,3.06-11.62,4.59-13.64,4.59c-0.71,0-1.06-0.29-1.06-0.87c0-0.26,0.85-0.9,2.56-1.92
			c10.26-6.14,18.38-12.54,24.37-19.19c6.84-7.17,11.54-15.1,14.11-23.8c2.56-7.93,3.85-16,3.85-24.19c0-5.56-0.57-9.45-1.71-11.68
			c-1.14-1.67-1.71-3.2-1.71-4.59C41.46,53.81,42.17,52.98,43.6,52.98z M88.89,75.5c3.77,2.47,5.66,4.36,5.66,5.65
			c-0.11,1.3-1.89,2-5.32,2.12c-10.37,0.28-22.21,1.21-35.54,2.77c-7.54,0.85-17.5,2.49-29.89,4.9c-2.42,0.57-3.9,0.85-4.44,0.85
			c-2.36,0-4.71-0.65-7.07-1.96c-2.81-1.18-4.21-2.31-4.21-3.38c0-0.47,1.06-0.95,3.17-1.42c24.98-3.36,45.49-6.52,61.53-9.48
			c5.61-1.21,9.15-1.82,10.62-1.82C83.98,73.73,85.81,74.32,88.89,75.5z M77.62,43.76c1.92,0.87,2.88,1.96,2.88,3.27
			c0,1.02-1.14,1.81-3.41,2.39c-2.64,1.02-8.51,2.32-17.61,3.91c-13.78,2.17-22.76,3.26-26.95,3.26c-4.29,0-7.28-0.5-8.95-1.51
			c-1.68-1.23-2.51-2.29-2.51-3.19c0-0.83,1.66-1.32,4.99-1.46c7.84-0.83,16.45-2.22,25.83-4.17c6.53-1.25,11.81-2.57,15.85-3.96
			c1.43-0.56,2.38-0.83,2.85-0.83C72.39,41.47,74.73,42.23,77.62,43.76z M54.95,85.66c10.84,16.37,21.13,28.16,30.89,35.4
			c4.34,3.44,8.99,6.37,13.98,8.78l10.4,5.17c3.24,1.32,4.86,2.4,4.86,3.25c0,0.96-0.89,1.5-2.67,1.62
			c-4.15,1.2-10.49,1.8-18.99,1.8c-5.14,0-8.8-1.26-10.98-3.76c-3.56-4.18-7.22-9.11-10.98-14.8c-5.14-7.19-10.19-15.72-15.13-25.59
			c-2.77-5.68-4.85-9.45-6.23-11.29c-0.99-1.5-1.48-2.42-1.48-2.76c0.23-1.48,1.04-2.22,2.43-2.22
			C52.35,81.44,53.65,82.9,54.95,85.66z"/>
	</g>
	<g>
		<path class="st0" d="M157.05,116.03c2.13,1.22,3.2,2.33,3.2,3.31c0,0.87-1.47,1.31-4.42,1.31c-4.11-0.11-8.54-0.16-13.28-0.16
			c-4.96,0-11.44,0.26-19.44,0.78c-5.74,0.26-11.86,1.01-18.38,2.25c-1.84,0.39-2.98,0.59-3.4,0.59c-0.96,0-2.39-0.44-4.3-1.3
			c-2.02-0.93-3.04-1.68-3.04-2.26c0-0.7,0.66-1.1,1.97-1.22c7.24-0.06,12.54-0.38,15.92-0.94c6.39-0.69,13.42-1.22,21.08-1.59
			c7.24-0.56,12.79-1.19,16.65-1.88c1.62-0.25,2.64-0.38,3.06-0.38C153.06,114.55,154.52,115.04,157.05,116.03z M143.3,70.9
			c1.2,0.55,1.8,1.23,1.8,2.05c0,0.55-0.77,0.99-2.3,1.3c-1.77,0.55-5.72,1.27-11.84,2.14c-9.26,1.19-15.3,1.78-18.12,1.78
			c-2.69,0-4.55-0.31-5.6-0.94c-1.05-0.77-1.57-1.43-1.57-1.99c0-0.46,1.12-0.73,3.35-0.81c5.26-0.46,11.03-1.23,17.33-2.31
			c4.38-0.69,7.93-1.42,10.64-2.19c0.96-0.31,1.59-0.46,1.91-0.46C140.02,69.47,141.49,69.94,143.3,70.9z M142.47,93.33
			c1.12,0.51,1.68,1.15,1.68,1.91c0,0.42-0.7,0.74-2.1,0.98c-1.63,0.42-5.25,0.95-10.86,1.61c-8.5,0.89-14.04,1.34-16.62,1.34
			c-2.51,0-4.25-0.29-5.23-0.88c-0.98-0.72-1.47-1.34-1.47-1.86c0-0.35,1.02-0.56,3.07-0.62c4.82-0.35,10.12-0.94,15.9-1.77
			c4.02-0.53,7.27-1.09,9.76-1.68c0.88-0.24,1.46-0.35,1.75-0.35C139.42,92,140.79,92.44,142.47,93.33z M127.6,77.34
			c1.65,0.76,2.47,1.8,2.47,3.13c0,0.12-0.29,0.64-0.88,1.57c-0.29,0.58-0.74,3.25-1.32,8.01l-0.05,28.47h-4.62l-0.5-29.48
			c0-2.23-0.22-4.64-0.65-7.22c-0.06-1.23-0.4-2.23-1.02-3c-0.5-0.65-0.74-1.06-0.74-1.23c0-1.3,0.67-1.95,2.01-1.95
			C123.76,75.63,125.53,76.2,127.6,77.34z M144.33,101.26c2.63,0.76,4.61,1.6,5.92,2.5c1.16,1.06,1.74,2.5,1.74,4.33
			c0,2.1-0.83,3.15-2.48,3.15c-0.69,0-1.43-0.34-2.21-1.03c-1.47-1.24-3.55-3.85-6.24-7.85c-0.35-0.41-0.52-0.72-0.52-0.93
			c0.11-0.49,0.37-0.74,0.77-0.74C142.24,100.69,143.25,100.89,144.33,101.26z"/>
	</g>
	<g>
		<path class="st0" d="M167.8,81.49c0.94,0.65,1.41,1.65,1.41,3.01c-0.48,32.34-1.09,50.81-1.83,55.39
			c-0.32,2.48-0.88,3.72-1.67,3.72c-0.69,0-1.37-0.66-2.06-1.96c-0.93-1.64-1.4-3.3-1.4-5.01c0-1.23,0.16-2.34,0.47-3.33
			c0.68-2.84,1.22-6.97,1.64-12.4c0.47-5.18,0.7-13.91,0.7-26.18c0-5.3-0.51-9.07-1.54-11.29c-0.38-0.8-0.58-1.39-0.58-1.76
			c0-0.71,0.47-1.07,1.41-1.07C165.71,80.61,166.87,80.91,167.8,81.49z M215.52,79.48c1.49,1.1,2.23,1.98,2.23,2.64
			c0,0.49-0.21,1.09-0.63,1.8c-0.69,1.97-1.03,5.68-1.03,11.13c0,12.34,0.19,21.6,0.58,27.8c0.17,4.51,0.25,9.38,0.25,14.62
			c0,2.21-0.56,4.19-1.67,5.96c-1.11,1.65-2.17,2.48-3.18,2.48l-2.31-9.42c0.5,0,0.85-0.66,1.04-1.97c0.4-2.46,0.6-9.37,0.6-20.73
			c0-8.89-0.31-17.48-0.93-25.78c-0.26-3.11-0.72-5.1-1.39-5.97c-0.57-0.44-1.42-0.65-2.55-0.65c-5.1,0-10.44,0.33-16.01,0.99
			c-7.45,0.77-12.91,1.45-16.37,2.05c-1.83,0.33-3.32,0.49-4.47,0.49c-0.73,0-1.67-0.36-2.81-1.07c-0.99-0.66-1.48-1.26-1.48-1.81
			c0-0.44,0.41-0.66,1.24-0.66c11.48-0.66,22.63-1.59,33.43-2.8c2.29-0.22,4.4-0.6,6.35-1.15c1.66-0.44,2.7-0.66,3.14-0.66
			C210.88,76.76,212.87,77.67,215.52,79.48z M209.61,135.47c1.22,0.86,1.83,1.57,1.83,2.14c0,0.49-0.61,0.73-1.83,0.73
			c-4.87,0-9.34,0.16-13.4,0.49l-18.88,1.1c-3.45,0.24-6.09,0.37-7.92,0.37c-1.44,0-2.42-0.27-2.94-0.82
			c-0.52-0.55-0.78-1.06-0.78-1.54c0-0.69,0.41-1.03,1.24-1.03c10.43-0.35,20.15-1,29.16-1.96c4.98-0.43,8.3-0.65,9.96-0.65
			C206.87,134.29,208.06,134.68,209.61,135.47z M188.51,114.26c0.78,0.61,1.17,1.24,1.17,1.9c0,0.24-0.25,0.5-0.75,0.78
			c-0.43,0.38-0.79,0.76-1.07,1.14c-0.93,0.97-1.96,2.01-3.11,3.12c-1.71,1.39-3.46,2.58-5.25,3.59c-1.71,0.87-3.36,1.54-4.93,2.03
			c-1.43,0.42-2.28,0.62-2.57,0.62c-0.43,0-0.65-0.09-0.65-0.28c2.05-1.25,3.59-2.32,4.62-3.21c2.37-1.73,4.38-3.45,6.04-5.15
			c1.42-1.47,2.37-2.65,2.84-3.54c0.39-0.48,0.59-0.96,0.59-1.44c0-0.38,0.21-0.57,0.63-0.57
			C186.96,113.26,187.77,113.6,188.51,114.26z M204.29,96.43c1.61,1.06,2.42,1.86,2.42,2.42c-0.05,0.55-0.81,0.86-2.28,0.91
			c-4.19,0.11-8.97,0.49-14.36,1.11c-3.05,0.34-7.07,1-12.07,1.97c-0.98,0.23-1.58,0.34-1.8,0.34c-1.01,0-2.02-0.28-3.03-0.84
			c-1.2-0.51-1.8-0.99-1.8-1.45c0-0.2,0.45-0.4,1.36-0.61c10.11-1.37,18.42-2.67,24.91-3.88c2.27-0.49,3.7-0.74,4.3-0.74
			C202.18,95.68,202.97,95.93,204.29,96.43z M180.48,106.04c1.32,0.48,1.98,1.06,1.98,1.74c0,0.39,0.04,0.79,0.12,1.22
			c0.52,2.58,0.78,4.36,0.78,5.34c0,0.66-0.1,1.19-0.29,1.58c-0.19,0.43-0.42,0.64-0.69,0.64c-0.31,0-0.61-0.26-0.92-0.78
			c-0.46-0.68-0.71-1.39-0.75-2.15l-0.61-2.53c-0.23-1.31-0.49-2.24-0.76-2.76c-0.17-0.54-0.61-1.04-1.31-1.5
			c-0.27-0.12-0.4-0.21-0.4-0.26c0-0.6,0.25-0.91,0.74-0.91C179.18,105.68,179.87,105.8,180.48,106.04z M198.69,88.79
			c0.72,0.33,1.08,0.74,1.08,1.23c0,0.4-0.42,0.71-1.27,0.93c-0.98,0.4-3.15,0.9-6.52,1.52c-5.11,0.85-8.44,1.27-9.99,1.27
			c-1.61,0-2.73-0.19-3.36-0.57c-0.63-0.46-0.94-0.86-0.94-1.2c0-0.32,0.62-0.51,1.85-0.57c2.91-0.32,6.1-0.86,9.58-1.62
			c2.42-0.49,4.38-1,5.88-1.54c0.53-0.22,0.88-0.32,1.06-0.32C196.72,87.93,197.61,88.22,198.69,88.79z M197.65,104.01
			c1.59,1.07,2.39,1.9,2.39,2.47c0,0.24-0.18,0.48-0.53,0.73c-1.14,0.93-1.98,1.92-2.51,2.96l-1.12,1.82
			c-0.48,0.85-1.19,1.27-2.11,1.27c-1.06,0-1.6-0.31-1.6-0.93c0-0.12,0.07-0.36,0.22-0.72c0.15-0.6,0.36-1.57,0.66-2.93
			c0.19-1.04,0.29-1.69,0.29-1.97c0-0.62-0.59-0.93-1.77-0.93c-0.7,0-1.8,0.17-3.29,0.51c-1.71,0.34-3.36,0.84-4.94,1.52
			c-0.31,0.2-0.57,0.3-0.79,0.3c-0.7,0-1.36-0.24-1.98-0.74c-0.66-0.41-0.99-0.74-0.99-0.98c0-0.37,0.31-0.55,0.93-0.55
			c0.9-0.06,1.82-0.2,2.77-0.44c2.06-0.47,5.04-1.08,8.95-1.84c0.6-0.12,1.18-0.32,1.74-0.61c0.34-0.12,0.58-0.18,0.71-0.18
			C195.15,102.78,196.14,103.19,197.65,104.01z M183.26,121.89c0.84,0.56,1.28,1.12,1.32,1.68c0,0.15,0.01,0.34,0.01,0.56
			c0.01,0.6,0.02,2.23,0.02,4.88c0,0.55,0.13,0.82,0.39,0.82c0.26,0,1.77-0.58,4.55-1.74c0.46-0.16,0.73-0.23,0.81-0.23
			c0.16,0,0.24,0.08,0.24,0.25c0,0.25-0.21,0.56-0.62,0.95c-3.07,2.88-5.05,4.79-5.94,5.74c-0.5,0.6-0.93,0.9-1.29,0.9
			c-0.5,0-0.91-0.3-1.25-0.91c-0.46-0.95-0.69-1.71-0.69-2.27c0-0.15,0.05-0.32,0.16-0.51c0.08-0.19,0.13-0.57,0.16-1.13
			c0.08-0.83,0.11-2.21,0.11-4.13c-0.04-1.61-0.26-2.84-0.65-3.67c-0.26-0.44-0.41-0.83-0.45-1.18c0-0.48,0.29-0.72,0.88-0.72
			C181.81,121.18,182.55,121.42,183.26,121.89z M195.49,112.17c0.96,0.67,1.44,1.23,1.44,1.68c0,0.2-0.18,0.3-0.53,0.3
			c-1.42,0-2.71,0.07-3.89,0.2l-5.49,0.45c-1,0.1-1.77,0.15-2.3,0.15c-1.13,0-1.9-0.22-2.31-0.65c-0.41-0.43-0.62-0.83-0.62-1.21
			c0-0.54,0.33-0.81,0.98-0.81c2.65-0.14,5.12-0.4,7.41-0.78c1.26-0.17,2.11-0.26,2.53-0.26
			C193.34,111.24,194.27,111.55,195.49,112.17z M189.13,83.75c0.94,0.5,1.42,1.06,1.42,1.66c0,0.4-0.07,0.83-0.21,1.28
			c-0.19,0.9-0.28,1.66-0.28,2.26l-0.64,10.79h-3.4l-0.44-12.34c-0.05-0.7-0.28-1.44-0.7-2.24c-0.33-0.4-0.49-0.7-0.49-0.9
			c0-0.9,0.45-1.35,1.35-1.35C186.62,82.92,187.76,83.2,189.13,83.75z M190.48,120.6c1.97,0.81,3.88,1.76,5.75,2.84
			c2.46,1.62,4.08,3.11,4.86,4.46c0.59,1.17,0.89,2.48,0.89,3.92c0,0.33-0.08,0.71-0.24,1.12c-0.19,0.3-0.42,0.46-0.71,0.46
			c-0.36,0-0.89-0.26-1.6-0.77c-1.19-0.73-2.67-2.27-4.44-4.61c-2.37-2.93-4.15-4.9-5.33-5.93c-0.95-0.73-1.42-1.28-1.42-1.65
			c0-0.16,0.06-0.25,0.18-0.25C188.81,120.19,189.49,120.33,190.48,120.6z M198.22,114.91c0.42,0,1.21,0.41,2.37,1.24
			c1.26,1.05,1.89,1.76,1.89,2.15c0,0.33-0.23,0.6-0.69,0.82c-1.68,1.04-4.35,2.42-8,4.12c-0.35,0.16-0.67,0.25-0.96,0.25
			c-0.15,0-0.22-0.11-0.22-0.32c0-0.05,0.09-0.16,0.29-0.33c1.08-1.26,2-2.47,2.76-3.63c1.02-1.43,1.71-2.67,2.09-3.71
			C197.87,115.11,198.03,114.91,198.22,114.91z M208.79,136.33c0.49,0.1,0.82,0.16,0.98,0.16l2.31,9.42c-0.42,0-0.8-0.42-1.14-1.25
			c-0.76-2.11-1.73-4.31-2.91-6.61c-0.55-0.77-0.82-1.25-0.82-1.44c0-0.4,0.15-0.6,0.45-0.6
			C207.92,136.02,208.3,136.13,208.79,136.33z"/>
	</g>
	<line class="st1" x1="1907" y1="149.72" x2="1830" y2="149.72"/>
	<polyline class="st1" points="48.77,2.19 120.28,41.32 94.55,41.32 94.55,56.58 229.95,56.58 229.95,149.72 1620,149.72 	"/>
</g>
<path class="st2" d="M1793.67,254.72h-137.33c-20.07,0-36.33-16.27-36.33-36.33V81.06c0-20.07,16.27-36.33,36.33-36.33h137.33
	c20.07,0,36.33,16.27,36.33,36.33v137.33C1830,238.46,1813.73,254.72,1793.67,254.72z"/>
<g>
	<path class="st0" d="M1721.38,124.36c-2.55,9.3-6.4,13.94-11.55,13.94c-3.55,0-7.43-2.26-11.62-6.77
		c-4.19-4.51-7.21-10.91-9.06-19.21h-18.66v18.11c5.9-1.23,12.12-2.86,18.66-4.89l0.58,6.43c-8.75,2.58-17.29,4.63-25.63,6.15
		l-2.08-6.29c1.3-0.5,1.95-1.48,1.95-2.94V78.59h51.03v19.52h-20.85c-0.07,2.94,0.09,5.65,0.48,8.13h24.64v6.08h-23.45
		c1.25,5.61,3.41,10.25,6.48,13.95c3.06,3.69,5.51,5.54,7.33,5.54c0.68,0,1.26-0.17,1.74-0.51s1.18-1.53,2.1-3.57
		c0.92-2.04,1.67-4.3,2.24-6.78L1721.38,124.36z M1708.49,91.96v-7.21h-38.01v7.21H1708.49z M1688.19,106.25
		c-0.32-2.37-0.56-5.08-0.72-8.13h-16.99v8.13H1688.19z"/>
	<path class="st0" d="M1748.79,90.9c-0.73,2.53-1.45,4.77-2.15,6.73l-2.19,6.08v34.42h-6.02v-23.31c-2.07,2.83-3.79,5-5.16,6.53
		l-4.27-4.89c6.24-7.34,10.83-16.28,13.77-26.83L1748.79,90.9z M1789.46,91.62h-6.36v-3.93h-45.42v3.93h-6.46v-9.67h25.5
		c-0.75-1.69-1.41-3.09-1.98-4.2l6.87-1.33c0.68,1.19,1.48,3.03,2.39,5.54h25.46V91.62z M1787.45,99.31h-16.24
		c-0.87,2.58-1.55,4.44-2.05,5.61h15.69v33.22h-6.15v-3.76h-21.02v3.76h-6.15v-33.22h10.87c1-1.91,1.72-3.78,2.15-5.61h-14.97v-5.67
		h37.87V99.31z M1778.7,116.94v-6.67h-21.02v6.67H1778.7z M1778.7,128.91v-6.7h-21.02v6.7H1778.7z"/>
</g>
<g>
	<path class="st0" d="M1677.11,210.63h-5.67v-2.94h-4.48v4.55h-5.67v-48.16h15.83V210.63z M1671.44,201.54v-31.45h-4.48v31.45
		H1671.44z M1698.54,170.43l-0.03,17.74l-0.1,17.16c-0.05,5.56-0.21,8.94-0.48,10.13s-0.76,2.17-1.47,2.92
		c-0.71,0.75-1.7,1.3-2.97,1.64c-1.28,0.34-3.35,0.44-6.22,0.31l-1.61-5.78c2.53,0,4.27-0.02,5.23-0.07s1.47-0.74,1.54-2.08
		l0.34-11.01l0.31-25.02h-4.48c-0.09,12.56-0.83,21.92-2.22,28.08c-1.39,6.16-3.9,11.56-7.52,16.18l-4.55-3.25
		c3.42-4.58,5.74-10.14,6.96-16.68c1.22-6.54,1.79-14.65,1.73-24.34h-4v-5.95h4v-11.11h5.61v11.11H1698.54z M1718.92,219.58h-5.61
		v-4.14h-5.13v4.14h-5.64v-52.84h16.37V219.58z M1713.31,209.36v-36.67h-5.13v36.67H1713.31z"/>
	<path class="st0" d="M1748.04,212.1h-5.88v-4.27h-4.92v5.81h-5.95v-49.97h16.75V212.1z M1742.16,201.74v-31.99h-4.92v31.99H1742.16
		z M1768.34,193.47c0,6.13-1.12,11.24-3.35,15.33c-2.23,4.09-5.97,7.99-11.21,11.71l-4.27-4.58c6.13-4.24,9.98-8.94,11.55-14.12
		c-4.38,1.71-7.85,2.94-10.42,3.69l-1.64-6.02c5.04-1.44,9.35-2.91,12.95-4.41c0.25-2.12,0.35-3.99,0.31-5.61h-10.46v-5.88h10.46
		v-9.5h-11.42v-5.95h11.42v-9.19h6.08V193.47z M1790.59,205.64h-11.55v14.63h-6.08v-61.32h6.08v9.19h11.28v5.95h-11.28v9.5h9.88
		v5.88h-9.88v10.15h11.55V205.64z"/>
</g>
<text transform="matrix(1 0 0 1 249.6665 133.7231)" class="st0 st3 st4">休閒渡假民宿、庭園咖啡、手作烘焙</text>
<text transform="matrix(1 0 0 1 251.4443 189.7231)" class="st0 st5 st4">Tianyu Yuan Homestay</text>
</svg>
