<?xml version="1.0" encoding="utf-8"?>
<!-- Generator: Adobe Illustrator 25.0.0, SVG Export Plug-In . SVG Version: 6.00 Build 0)  -->
<svg version="1.1" id="圖層_1" xmlns="http://www.w3.org/2000/svg" xmlns:xlink="http://www.w3.org/1999/xlink" x="0px" y="0px"
	 viewBox="0 0 1907 257.22" style="enable-background:new 0 0 1907 257.22;" xml:space="preserve">
<style type="text/css">
	.st0{fill:#F2F2F2;}
	.st1{fill:none;stroke:#F2F2F2;stroke-width:5;stroke-linejoin:round;stroke-miterlimit:10;}
	.st2{fill:none;stroke:#F2F2F2;stroke-width:5;stroke-miterlimit:10;}
</style>
<g>
	<g>
		<path class="st0" d="M43.6,52.98c1.75,0,4.37,0.73,7.87,2.18C54.49,56.3,56,57.67,56,59.28c0,0.72-0.24,1.62-0.71,2.7
			c-0.79,1.8-1.18,5.05-1.18,9.73c0,10.45-1.77,19.88-5.3,28.29c-3.03,8.16-7.58,15.55-13.64,22.17
			c-5.56,6.12-12.38,11.09-20.46,14.91c-7.07,3.06-11.62,4.59-13.64,4.59c-0.71,0-1.06-0.29-1.06-0.87c0-0.26,0.85-0.9,2.56-1.92
			c10.26-6.14,18.38-12.54,24.37-19.19c6.84-7.17,11.54-15.1,14.11-23.8c2.56-7.93,3.85-16,3.85-24.19c0-5.56-0.57-9.45-1.71-11.68
			c-1.14-1.67-1.71-3.2-1.71-4.59C41.46,53.81,42.17,52.98,43.6,52.98z M88.89,75.5c3.77,2.47,5.66,4.36,5.66,5.65
			c-0.11,1.3-1.89,2-5.32,2.12c-10.37,0.28-22.21,1.21-35.54,2.77c-7.54,0.85-17.5,2.49-29.89,4.9c-2.42,0.57-3.9,0.85-4.44,0.85
			c-2.36,0-4.71-0.65-7.07-1.96c-2.81-1.18-4.21-2.31-4.21-3.38c0-0.47,1.06-0.95,3.17-1.42c24.98-3.36,45.49-6.52,61.53-9.48
			c5.61-1.21,9.15-1.82,10.62-1.82C83.98,73.73,85.81,74.32,88.89,75.5z M77.62,43.76c1.92,0.87,2.88,1.96,2.88,3.27
			c0,1.02-1.14,1.81-3.41,2.39c-2.64,1.02-8.51,2.32-17.61,3.91c-13.78,2.17-22.76,3.26-26.95,3.26c-4.29,0-7.28-0.5-8.95-1.51
			c-1.68-1.23-2.51-2.29-2.51-3.19c0-0.83,1.66-1.32,4.99-1.46c7.84-0.83,16.45-2.22,25.83-4.17c6.53-1.25,11.81-2.57,15.85-3.96
			c1.43-0.56,2.38-0.83,2.85-0.83C72.39,41.47,74.73,42.23,77.62,43.76z M54.95,85.66c10.84,16.37,21.13,28.16,30.89,35.4
			c4.34,3.44,8.99,6.37,13.98,8.78l10.4,5.17c3.24,1.32,4.86,2.4,4.86,3.25c0,0.96-0.89,1.5-2.67,1.62
			c-4.15,1.2-10.49,1.8-18.99,1.8c-5.14,0-8.8-1.26-10.98-3.76c-3.56-4.18-7.22-9.11-10.98-14.8c-5.14-7.19-10.19-15.72-15.13-25.59
			c-2.77-5.68-4.85-9.45-6.23-11.29c-0.99-1.5-1.48-2.42-1.48-2.76c0.23-1.48,1.04-2.22,2.43-2.22
			C52.35,81.44,53.65,82.9,54.95,85.66z"/>
	</g>
	<g>
		<path class="st0" d="M157.05,116.03c2.13,1.22,3.2,2.33,3.2,3.31c0,0.87-1.47,1.31-4.42,1.31c-4.11-0.11-8.54-0.16-13.28-0.16
			c-4.96,0-11.44,0.26-19.44,0.78c-5.74,0.26-11.86,1.01-18.38,2.25c-1.84,0.39-2.98,0.59-3.4,0.59c-0.96,0-2.39-0.44-4.3-1.3
			c-2.02-0.93-3.04-1.68-3.04-2.26c0-0.7,0.66-1.1,1.97-1.22c7.24-0.06,12.54-0.38,15.92-0.94c6.39-0.69,13.42-1.22,21.08-1.59
			c7.24-0.56,12.79-1.19,16.65-1.88c1.62-0.25,2.64-0.38,3.06-0.38C153.06,114.55,154.52,115.04,157.05,116.03z M143.3,70.9
			c1.2,0.55,1.8,1.23,1.8,2.05c0,0.55-0.77,0.99-2.3,1.3c-1.77,0.55-5.72,1.27-11.84,2.14c-9.26,1.19-15.3,1.78-18.12,1.78
			c-2.69,0-4.55-0.31-5.6-0.94c-1.05-0.77-1.57-1.43-1.57-1.99c0-0.46,1.12-0.73,3.35-0.81c5.26-0.46,11.03-1.23,17.33-2.31
			c4.38-0.69,7.93-1.42,10.64-2.19c0.96-0.31,1.59-0.46,1.91-0.46C140.02,69.47,141.49,69.94,143.3,70.9z M142.47,93.33
			c1.12,0.51,1.68,1.15,1.68,1.91c0,0.42-0.7,0.74-2.1,0.98c-1.63,0.42-5.25,0.95-10.86,1.61c-8.5,0.89-14.04,1.34-16.62,1.34
			c-2.51,0-4.25-0.29-5.23-0.88c-0.98-0.72-1.47-1.34-1.47-1.86c0-0.35,1.02-0.56,3.07-0.62c4.82-0.35,10.12-0.94,15.9-1.77
			c4.02-0.53,7.27-1.09,9.76-1.68c0.88-0.24,1.46-0.35,1.75-0.35C139.42,92,140.79,92.44,142.47,93.33z M127.6,77.34
			c1.65,0.76,2.47,1.8,2.47,3.13c0,0.12-0.29,0.64-0.88,1.57c-0.29,0.58-0.74,3.25-1.32,8.01l-0.05,28.47h-4.62l-0.5-29.48
			c0-2.23-0.22-4.64-0.65-7.22c-0.06-1.23-0.4-2.23-1.02-3c-0.5-0.65-0.74-1.06-0.74-1.23c0-1.3,0.67-1.95,2.01-1.95
			C123.76,75.63,125.53,76.2,127.6,77.34z M144.33,101.26c2.63,0.76,4.61,1.6,5.92,2.5c1.16,1.06,1.74,2.5,1.74,4.33
			c0,2.1-0.83,3.15-2.48,3.15c-0.69,0-1.43-0.34-2.21-1.03c-1.47-1.24-3.55-3.85-6.24-7.85c-0.35-0.41-0.52-0.72-0.52-0.93
			c0.11-0.49,0.37-0.74,0.77-0.74C142.24,100.69,143.25,100.89,144.33,101.26z"/>
	</g>
	<g>
		<path class="st0" d="M167.8,81.49c0.94,0.65,1.41,1.65,1.41,3.01c-0.48,32.34-1.09,50.81-1.83,55.39
			c-0.32,2.48-0.88,3.72-1.67,3.72c-0.69,0-1.37-0.66-2.06-1.96c-0.93-1.64-1.4-3.3-1.4-5.01c0-1.23,0.16-2.34,0.47-3.33
			c0.68-2.84,1.22-6.97,1.64-12.4c0.47-5.18,0.7-13.91,0.7-26.18c0-5.3-0.51-9.07-1.54-11.29c-0.38-0.8-0.58-1.39-0.58-1.76
			c0-0.71,0.47-1.07,1.41-1.07C165.71,80.61,166.87,80.91,167.8,81.49z M215.52,79.48c1.49,1.1,2.23,1.98,2.23,2.64
			c0,0.49-0.21,1.09-0.63,1.8c-0.69,1.97-1.03,5.68-1.03,11.13c0,12.34,0.19,21.6,0.58,27.8c0.17,4.51,0.25,9.38,0.25,14.62
			c0,2.21-0.56,4.19-1.67,5.96c-1.11,1.65-2.17,2.48-3.18,2.48l-2.31-9.42c0.5,0,0.85-0.66,1.04-1.97c0.4-2.46,0.6-9.37,0.6-20.73
			c0-8.89-0.31-17.48-0.93-25.78c-0.26-3.11-0.72-5.1-1.39-5.97c-0.57-0.44-1.42-0.65-2.55-0.65c-5.1,0-10.44,0.33-16.01,0.99
			c-7.45,0.77-12.91,1.45-16.37,2.05c-1.83,0.33-3.32,0.49-4.47,0.49c-0.73,0-1.67-0.36-2.81-1.07c-0.99-0.66-1.48-1.26-1.48-1.81
			c0-0.44,0.41-0.66,1.24-0.66c11.48-0.66,22.63-1.59,33.43-2.8c2.29-0.22,4.4-0.6,6.35-1.15c1.66-0.44,2.7-0.66,3.14-0.66
			C210.88,76.76,212.87,77.67,215.52,79.48z M209.61,135.47c1.22,0.86,1.83,1.57,1.83,2.14c0,0.49-0.61,0.73-1.83,0.73
			c-4.87,0-9.34,0.16-13.4,0.49l-18.88,1.1c-3.45,0.24-6.09,0.37-7.92,0.37c-1.44,0-2.42-0.27-2.94-0.82
			c-0.52-0.55-0.78-1.06-0.78-1.54c0-0.69,0.41-1.03,1.24-1.03c10.43-0.35,20.15-1,29.16-1.96c4.98-0.43,8.3-0.65,9.96-0.65
			C206.87,134.29,208.06,134.68,209.61,135.47z M188.51,114.26c0.78,0.61,1.17,1.24,1.17,1.9c0,0.24-0.25,0.5-0.75,0.78
			c-0.43,0.38-0.79,0.76-1.07,1.14c-0.93,0.97-1.96,2.01-3.11,3.12c-1.71,1.39-3.46,2.58-5.25,3.59c-1.71,0.87-3.36,1.54-4.93,2.03
			c-1.43,0.42-2.28,0.62-2.57,0.62c-0.43,0-0.65-0.09-0.65-0.28c2.05-1.25,3.59-2.32,4.62-3.21c2.37-1.73,4.38-3.45,6.04-5.15
			c1.42-1.47,2.37-2.65,2.84-3.54c0.39-0.48,0.59-0.96,0.59-1.44c0-0.38,0.21-0.57,0.63-0.57
			C186.96,113.26,187.77,113.6,188.51,114.26z M204.29,96.43c1.61,1.06,2.42,1.86,2.42,2.42c-0.05,0.55-0.81,0.86-2.28,0.91
			c-4.19,0.11-8.97,0.49-14.36,1.11c-3.05,0.34-7.07,1-12.07,1.97c-0.98,0.23-1.58,0.34-1.8,0.34c-1.01,0-2.02-0.28-3.03-0.84
			c-1.2-0.51-1.8-0.99-1.8-1.45c0-0.2,0.45-0.4,1.36-0.61c10.11-1.37,18.42-2.67,24.91-3.88c2.27-0.49,3.7-0.74,4.3-0.74
			C202.18,95.68,202.97,95.93,204.29,96.43z M180.48,106.04c1.32,0.48,1.98,1.06,1.98,1.74c0,0.39,0.04,0.79,0.12,1.22
			c0.52,2.58,0.78,4.36,0.78,5.34c0,0.66-0.1,1.19-0.29,1.58c-0.19,0.43-0.42,0.64-0.69,0.64c-0.31,0-0.61-0.26-0.92-0.78
			c-0.46-0.68-0.71-1.39-0.75-2.15l-0.61-2.53c-0.23-1.31-0.49-2.24-0.76-2.76c-0.17-0.54-0.61-1.04-1.31-1.5
			c-0.27-0.12-0.4-0.21-0.4-0.26c0-0.6,0.25-0.91,0.74-0.91C179.18,105.68,179.87,105.8,180.48,106.04z M198.69,88.79
			c0.72,0.33,1.08,0.74,1.08,1.23c0,0.4-0.42,0.71-1.27,0.93c-0.98,0.4-3.15,0.9-6.52,1.52c-5.11,0.85-8.44,1.27-9.99,1.27
			c-1.61,0-2.73-0.19-3.36-0.57c-0.63-0.46-0.94-0.86-0.94-1.2c0-0.32,0.62-0.51,1.85-0.57c2.91-0.32,6.1-0.86,9.58-1.62
			c2.42-0.49,4.38-1,5.88-1.54c0.53-0.22,0.88-0.32,1.06-0.32C196.72,87.93,197.61,88.22,198.69,88.79z M197.65,104.01
			c1.59,1.07,2.39,1.9,2.39,2.47c0,0.24-0.18,0.48-0.53,0.73c-1.14,0.93-1.98,1.92-2.51,2.96l-1.12,1.82
			c-0.48,0.85-1.19,1.27-2.11,1.27c-1.06,0-1.6-0.31-1.6-0.93c0-0.12,0.07-0.36,0.22-0.72c0.15-0.6,0.36-1.57,0.66-2.93
			c0.19-1.04,0.29-1.69,0.29-1.97c0-0.62-0.59-0.93-1.77-0.93c-0.7,0-1.8,0.17-3.29,0.51c-1.71,0.34-3.36,0.84-4.94,1.52
			c-0.31,0.2-0.57,0.3-0.79,0.3c-0.7,0-1.36-0.24-1.98-0.74c-0.66-0.41-0.99-0.74-0.99-0.98c0-0.37,0.31-0.55,0.93-0.55
			c0.9-0.06,1.82-0.2,2.77-0.44c2.06-0.47,5.04-1.08,8.95-1.84c0.6-0.12,1.18-0.32,1.74-0.61c0.34-0.12,0.58-0.18,0.71-0.18
			C195.15,102.78,196.14,103.19,197.65,104.01z M183.26,121.89c0.84,0.56,1.28,1.12,1.32,1.68c0,0.15,0.01,0.34,0.01,0.56
			c0.01,0.6,0.02,2.23,0.02,4.88c0,0.55,0.13,0.82,0.39,0.82c0.26,0,1.77-0.58,4.55-1.74c0.46-0.16,0.73-0.23,0.81-0.23
			c0.16,0,0.24,0.08,0.24,0.25c0,0.25-0.21,0.56-0.62,0.95c-3.07,2.88-5.05,4.79-5.94,5.74c-0.5,0.6-0.93,0.9-1.29,0.9
			c-0.5,0-0.91-0.3-1.25-0.91c-0.46-0.95-0.69-1.71-0.69-2.27c0-0.15,0.05-0.32,0.16-0.51c0.08-0.19,0.13-0.57,0.16-1.13
			c0.08-0.83,0.11-2.21,0.11-4.13c-0.04-1.61-0.26-2.84-0.65-3.67c-0.26-0.44-0.41-0.83-0.45-1.18c0-0.48,0.29-0.72,0.88-0.72
			C181.81,121.18,182.55,121.42,183.26,121.89z M195.49,112.17c0.96,0.67,1.44,1.23,1.44,1.68c0,0.2-0.18,0.3-0.53,0.3
			c-1.42,0-2.71,0.07-3.89,0.2l-5.49,0.45c-1,0.1-1.77,0.15-2.3,0.15c-1.13,0-1.9-0.22-2.31-0.65c-0.41-0.43-0.62-0.83-0.62-1.21
			c0-0.54,0.33-0.81,0.98-0.81c2.65-0.14,5.12-0.4,7.41-0.78c1.26-0.17,2.11-0.26,2.53-0.26
			C193.34,111.24,194.27,111.55,195.49,112.17z M189.13,83.75c0.94,0.5,1.42,1.06,1.42,1.66c0,0.4-0.07,0.83-0.21,1.28
			c-0.19,0.9-0.28,1.66-0.28,2.26l-0.64,10.79h-3.4l-0.44-12.34c-0.05-0.7-0.28-1.44-0.7-2.24c-0.33-0.4-0.49-0.7-0.49-0.9
			c0-0.9,0.45-1.35,1.35-1.35C186.62,82.92,187.76,83.2,189.13,83.75z M190.48,120.6c1.97,0.81,3.88,1.76,5.75,2.84
			c2.46,1.62,4.08,3.11,4.86,4.46c0.59,1.17,0.89,2.48,0.89,3.92c0,0.33-0.08,0.71-0.24,1.12c-0.19,0.3-0.42,0.46-0.71,0.46
			c-0.36,0-0.89-0.26-1.6-0.77c-1.19-0.73-2.67-2.27-4.44-4.61c-2.37-2.93-4.15-4.9-5.33-5.93c-0.95-0.73-1.42-1.28-1.42-1.65
			c0-0.16,0.06-0.25,0.18-0.25C188.81,120.19,189.49,120.33,190.48,120.6z M198.22,114.91c0.42,0,1.21,0.41,2.37,1.24
			c1.26,1.05,1.89,1.76,1.89,2.15c0,0.33-0.23,0.6-0.69,0.82c-1.68,1.04-4.35,2.42-8,4.12c-0.35,0.16-0.67,0.25-0.96,0.25
			c-0.15,0-0.22-0.11-0.22-0.32c0-0.05,0.09-0.16,0.29-0.33c1.08-1.26,2-2.47,2.76-3.63c1.02-1.43,1.71-2.67,2.09-3.71
			C197.87,115.11,198.03,114.91,198.22,114.91z M208.79,136.33c0.49,0.1,0.82,0.16,0.98,0.16l2.31,9.42c-0.42,0-0.8-0.42-1.14-1.25
			c-0.76-2.11-1.73-4.31-2.91-6.61c-0.55-0.77-0.82-1.25-0.82-1.44c0-0.4,0.15-0.6,0.45-0.6
			C207.92,136.02,208.3,136.13,208.79,136.33z"/>
	</g>
	<line class="st1" x1="1907" y1="149.72" x2="1830" y2="149.72"/>
	<polyline class="st1" points="48.77,2.19 120.28,41.32 94.55,41.32 94.55,56.58 229.95,56.58 229.95,149.72 1620,149.72 	"/>
</g>
<path class="st2" d="M1793.67,254.72h-137.33c-20.07,0-36.33-16.27-36.33-36.33V81.06c0-20.07,16.27-36.33,36.33-36.33h137.33
	c20.07,0,36.33,16.27,36.33,36.33v137.33C1830,238.46,1813.73,254.72,1793.67,254.72z"/>
<g>
	<path class="st0" d="M1721.38,124.36c-2.55,9.3-6.4,13.95-11.55,13.95c-3.55,0-7.43-2.26-11.62-6.77
		c-4.19-4.51-7.21-10.91-9.06-19.21h-18.66v18.12c5.9-1.23,12.12-2.86,18.66-4.89l0.58,6.43c-8.75,2.58-17.29,4.63-25.63,6.15
		l-2.08-6.29c1.3-0.5,1.95-1.48,1.95-2.94V78.59h51.03v19.52h-20.85c-0.07,2.94,0.09,5.65,0.48,8.13h24.64v6.08h-23.45
		c1.25,5.61,3.41,10.25,6.48,13.95c3.06,3.69,5.51,5.54,7.33,5.54c0.68,0,1.26-0.17,1.74-0.51s1.18-1.53,2.1-3.57
		c0.92-2.04,1.67-4.3,2.24-6.78L1721.38,124.36z M1708.49,91.96v-7.21h-38.01v7.21H1708.49z M1688.19,106.24
		c-0.32-2.37-0.56-5.08-0.72-8.13h-16.99v8.13H1688.19z"/>
	<path class="st0" d="M1748.79,90.9c-0.73,2.53-1.45,4.77-2.15,6.73l-2.19,6.08v34.42h-6.02v-23.31c-2.07,2.83-3.79,5-5.16,6.53
		l-4.27-4.89c6.24-7.34,10.83-16.28,13.77-26.83L1748.79,90.9z M1789.46,91.62h-6.36v-3.93h-45.42v3.93h-6.46v-9.67h25.5
		c-0.75-1.69-1.41-3.09-1.98-4.2l6.87-1.33c0.68,1.19,1.48,3.03,2.39,5.54h25.46V91.62z M1787.45,99.31h-16.24
		c-0.87,2.58-1.55,4.44-2.05,5.61h15.69v33.22h-6.15v-3.76h-21.02v3.76h-6.15v-33.22h10.87c1-1.91,1.72-3.78,2.15-5.61h-14.97v-5.67
		h37.87V99.31z M1778.7,116.94v-6.67h-21.02v6.67H1778.7z M1778.7,128.91v-6.7h-21.02v6.7H1778.7z"/>
</g>
<g>
	<path class="st0" d="M1677.11,210.63h-5.67v-2.94h-4.48v4.55h-5.67v-48.16h15.83V210.63z M1671.44,201.54v-31.45h-4.48v31.45
		H1671.44z M1698.54,170.43l-0.03,17.74l-0.1,17.16c-0.05,5.56-0.21,8.94-0.48,10.13s-0.76,2.17-1.47,2.92
		c-0.71,0.75-1.7,1.3-2.97,1.64c-1.28,0.34-3.35,0.44-6.22,0.31l-1.61-5.78c2.53,0,4.27-0.02,5.23-0.07
		c0.96-0.05,1.47-0.74,1.54-2.08l0.34-11.01l0.31-25.02h-4.48c-0.09,12.56-0.83,21.92-2.22,28.08c-1.39,6.16-3.9,11.56-7.52,16.18
		l-4.55-3.25c3.42-4.58,5.74-10.14,6.96-16.68c1.22-6.54,1.79-14.65,1.73-24.34h-4v-5.95h4v-11.11h5.61v11.11H1698.54z
		 M1718.92,219.58h-5.61v-4.14h-5.13v4.14h-5.64v-52.84h16.37V219.58z M1713.31,209.36v-36.67h-5.13v36.67H1713.31z"/>
	<path class="st0" d="M1748.04,212.1h-5.88v-4.27h-4.92v5.81h-5.95v-49.97h16.75V212.1z M1742.16,201.74v-31.99h-4.92v31.99H1742.16
		z M1768.34,193.47c0,6.13-1.12,11.24-3.35,15.33c-2.23,4.09-5.97,7.99-11.21,11.71l-4.27-4.58c6.13-4.24,9.98-8.94,11.55-14.12
		c-4.38,1.71-7.85,2.94-10.42,3.69l-1.64-6.02c5.04-1.44,9.35-2.91,12.95-4.41c0.25-2.12,0.35-3.99,0.31-5.61h-10.46v-5.88h10.46
		v-9.5h-11.42v-5.95h11.42v-9.19h6.08V193.47z M1790.59,205.64h-11.55v14.63h-6.08v-61.32h6.08v9.19h11.28v5.95h-11.28v9.5h9.88
		v5.88h-9.88v10.15h11.55V205.64z"/>
</g>
<g>
	<path class="st0" d="M261.79,104.46c-0.4,1.1-0.97,2.51-1.71,4.22l-1.11,2.51v24.26h-3.37v-17.93c-0.57,0.9-1.28,1.9-2.13,2.99
		l-1.79-3.45c2.95-3.75,5.21-8.21,6.77-13.39L261.79,104.46z M283.71,128.57l-2.41,2.51c-3.87-5.25-6.56-10.32-8.07-15.22v19.58
		h-3.2v-19.48c-1.75,5.43-4.49,10.42-8.24,14.98l-2.48-2.37c4.15-4.8,7.08-9.94,8.79-15.4h-7.28v-3.06h9.21v-5.94h3.2v5.94h9.4v3.06
		h-7.52C276.7,117.96,279.57,123.09,283.71,128.57z"/>
	<path class="st0" d="M302.63,115.86h-10.3v19.62h-3.23v-30.85h13.54V115.86z M299.41,108.99v-1.58h-7.08v1.58H299.41z
		 M299.41,113.24v-1.81h-7.08v1.81H299.41z M311.26,130.77c0,1.08-0.33,1.89-1,2.43s-2.44,0.75-5.33,0.62l-0.91-2.92
		c1.22,0.05,2.4,0.07,3.53,0.07c0.48,0,0.72-0.26,0.72-0.79v-1.51h-8.86c-0.61,2.25-1.58,4.16-2.92,5.73l-2.34-1.95
		c1-1.21,1.71-2.49,2.14-3.85c0.43-1.36,0.64-3.39,0.64-6.08v-4.71h14.33V130.77z M308.27,126.34v-1.86h-8.46
		c0.02,0.5-0.01,1.12-0.11,1.86H308.27z M308.27,122.14v-1.81h-8.35v1.81H308.27z M318.43,132.25c0,1.23-0.31,2.08-0.93,2.55
		s-1.73,0.7-3.32,0.7c-0.36,0-0.7-0.02-1-0.05l-1.09-3.13c0.62,0.02,1.11,0.04,1.46,0.04c0.79,0,1.25-0.07,1.41-0.22
		s0.23-0.38,0.23-0.71V115.9H305v-11.27h13.43V132.25z M315.18,108.99v-1.58h-6.94v1.58H315.18z M315.18,113.24v-1.81h-6.94v1.81
		H315.18z"/>
	<path class="st0" d="M331.25,123.97c-1.54,4.65-3.08,8.48-4.64,11.48l-2.6-2.04c1.77-3.54,3.27-7.35,4.5-11.43L331.25,123.97z
		 M332.35,117.34l-2,2.48c-1.5-1.5-3.58-3-6.24-4.5l1.85-2.55C328.3,114,330.43,115.52,332.35,117.34z M332.65,109.03l-2.2,2.41
		c-1.43-1.77-3.33-3.52-5.7-5.26l2.23-2.3C329.14,105.41,331.02,107.13,332.65,109.03z M355.47,109.75h-18.83v3.2h3.13v-2.07h3.09
		v2.07h5.36v-2.07h3.15v2.07h3.85v2.78h-3.85v5.22h-11.6v-5.22h-3.13v2.67c0,7.99-1.55,13.83-4.64,17.53l-2.2-2.44
		c2.47-3.41,3.71-8.56,3.71-15.45V106.9h9.11c-0.22-0.62-0.61-1.47-1.16-2.55l3.36-0.65c0.56,1.14,1.04,2.2,1.44,3.2h9.21V109.75z
		 M355.84,132.97l-1.41,2.92c-3.52-0.6-6.47-1.57-8.86-2.92c-2.66,1.38-5.79,2.34-9.4,2.88l-1.21-3.09c2.7-0.2,5.21-0.8,7.56-1.81
		c-1.54-1.43-2.82-3.12-3.85-5.06h-1.37v-2.85h15.7v2.85c-0.81,1.56-2.3,3.23-4.46,5.03C350.62,131.87,353.06,132.56,355.84,132.97z
		 M349.32,125.88h-7.14c1,1.37,2.1,2.54,3.32,3.52C346.79,128.46,348.06,127.29,349.32,125.88z M348.23,118.2v-2.48h-5.36v2.48
		H348.23z"/>
	<path class="st0" d="M367.93,104.39c-0.19,1.17-0.56,2.74-1.12,4.69l-0.86,2.83v23.64h-3.06v-16.59c-0.32,0.63-0.82,1.5-1.51,2.6
		l-1.62-3.6c2.11-3.39,3.86-8.15,5.26-14.29L367.93,104.39z M378.34,115.72h-6.49v3.78h6.22v2.95h-6.22v3.96h6.4v2.99h-6.4v6.15
		h-3.06v-30.69h9.54V115.72z M375.31,112.73v-4.82h-3.46v4.82H375.31z M391.98,133.37l-1.92,2.37c-1.92-1.23-3.6-2.6-5.04-4.11
		c-1.89,1.82-3.79,3.2-5.71,4.15l-1.92-2.41c2.21-1.05,4.15-2.39,5.8-4.01c-1.54-2.29-2.59-4.95-3.16-7.98h-0.97v-3.08h11.14v3.08
		c-0.75,3.21-1.83,5.87-3.23,7.98C388.39,130.82,390.06,132.15,391.98,133.37z M389.78,115.72h-9.97v-2.99h6.8v-4.82h-6.8v-3.06
		h9.97V115.72z M387.21,121.38h-4.27c0.6,2.24,1.32,4.06,2.16,5.47C386.05,125.09,386.76,123.27,387.21,121.38z"/>
	<path class="st0" d="M427.8,128.47c-1.31,4.78-3.29,7.17-5.94,7.17c-1.83,0-3.82-1.16-5.98-3.48s-3.71-5.61-4.66-9.88h-9.6v9.32
		c3.04-0.63,6.23-1.47,9.6-2.51l0.3,3.3c-4.5,1.32-8.89,2.38-13.18,3.16l-1.07-3.23c0.67-0.26,1-0.76,1-1.51v-25.88h26.24v10.04
		h-10.72c-0.04,1.51,0.05,2.91,0.25,4.18h12.67v3.13h-12.06c0.64,2.88,1.76,5.27,3.33,7.17c1.58,1.9,2.83,2.85,3.77,2.85
		c0.35,0,0.65-0.09,0.9-0.26s0.61-0.79,1.08-1.84s0.86-2.21,1.15-3.49L427.8,128.47z M421.18,111.8v-3.71h-19.55v3.71H421.18z
		 M410.73,119.15c-0.16-1.22-0.29-2.61-0.37-4.18h-8.74v4.18H410.73z"/>
	<path class="st0" d="M441.9,111.26c-0.38,1.3-0.74,2.46-1.11,3.46l-1.12,3.13v17.7h-3.09v-11.99c-1.07,1.45-1.95,2.57-2.65,3.36
		l-2.2-2.51c3.21-3.77,5.57-8.37,7.08-13.8L441.9,111.26z M462.82,111.63h-3.27v-2.02h-23.36v2.02h-3.32v-4.97h13.11
		c-0.39-0.87-0.73-1.59-1.02-2.16l3.53-0.69c0.35,0.61,0.76,1.56,1.23,2.85h13.1V111.63z M461.78,115.58h-8.35
		c-0.45,1.32-0.8,2.29-1.05,2.88h8.07v17.09h-3.16v-1.93h-10.81v1.93h-3.16v-17.09h5.59c0.52-0.98,0.88-1.95,1.11-2.88h-7.7v-2.92
		h19.48V115.58z M457.28,124.65v-3.43h-10.81v3.43H457.28z M457.28,130.81v-3.45h-10.81v3.45H457.28z"/>
	<path class="st0" d="M488.13,121.33l-2.41,2.36c-1.78-2.1-3.8-3.9-6.05-5.41l2.37-2.37C484.13,117.28,486.16,119.09,488.13,121.33z
		"/>
	<path class="st0" d="M535.36,109.71h-25.45v12.46c0,5.39-1.08,9.94-3.23,13.64l-2.6-1.99c1.78-3.27,2.67-7.27,2.67-11.99v-15.12
		h12.2c-0.34-0.67-0.8-1.34-1.37-2.02l3.43-0.72c0.22,0.29,0.76,1.21,1.62,2.74h12.74V109.71z M535.8,132l-0.95,3.09h-9.65
		c-3.76,0-6.88-0.86-9.35-2.57c-1.04,1.09-2.5,2.16-4.36,3.22l-2.06-2.5c1.71-0.81,3.12-1.78,4.22-2.92
		c-0.9-1.03-1.83-2.81-2.78-5.33l2.88-0.97c0.62,1.83,1.14,3.05,1.55,3.67c0.68-1.35,1.08-2.96,1.2-4.85h-5.19v-2.95
		c1.25-1.05,2.68-2.68,4.29-4.87h-4.29v-2.95h7.91v2.95c-1.03,1.65-2.3,3.28-3.81,4.87h4.25v2.95c-0.41,2.99-1.12,5.43-2.13,7.33
		c1.75,1.21,4.22,1.81,7.42,1.81H535.8z M534.96,129.54h-14.82v-2.95h5.85v-4.57h-4.68v-2.9h4.68v-3.53
		c-1.79,0.18-3.28,0.3-4.46,0.39l-1.21-2.88c4.93-0.27,9.21-0.95,12.81-2.04l1.72,2.65c-2.1,0.61-3.99,1.05-5.68,1.34v4.08h4.54v2.9
		h-4.54v4.57h5.78V129.54z"/>
	<path class="st0" d="M570.13,135.48H567v-1.32h-22.43v1.32h-3.2v-30.85h28.76V135.48z M567,131.42v-23.98h-22.43v23.98H567z
		 M564.09,123.07h-8.63c-0.52,0.59-1.1,1.12-1.74,1.62v2.95c0.86-0.19,1.9-0.51,3.15-0.97l0.25,2.48c-2.61,0.89-4.7,1.48-6.26,1.76
		l-0.72-2.2c0.42-0.29,0.63-0.69,0.63-1.18v-0.79c-1.66,0.86-3.09,1.49-4.27,1.9l-1.23-2.37c3.05-1.05,5.22-2.12,6.52-3.2h-4.29
		v-6.05h16.59V123.07z M565.83,115.69h-20.23v-2.27h8.6v-1.62h-7.52v-2.2h7.52v-1.27h3.09v1.27h7.49v2.2h-7.49v1.62h8.54V115.69z
		 M560.89,120.87v-1.69h-10.27v1.69H560.89z M566.11,128.82l-1.85,1.95c-2.51-1.86-5.38-3.62-8.63-5.26l1.83-1.79
		c0.89,0.33,1.96,0.88,3.22,1.65c0.74-0.61,1.48-1.28,2.23-2.02l2.51,1.34c-0.77,0.74-1.55,1.41-2.34,2.02
		C564.13,127.4,565.13,128.1,566.11,128.82z"/>
	<path class="st0" d="M585.04,130.59h-2.92v-1.51h-2.3v2.34h-2.92v-24.77h8.14V130.59z M582.12,125.92v-16.17h-2.3v16.17H582.12z
		 M596.06,109.92l-0.02,9.12l-0.05,8.82c-0.02,2.86-0.11,4.6-0.25,5.21s-0.39,1.12-0.76,1.5s-0.87,0.67-1.53,0.84
		s-1.72,0.23-3.2,0.16l-0.83-2.97c1.3,0,2.2-0.01,2.69-0.04s0.76-0.38,0.79-1.07l0.18-5.66l0.16-12.87h-2.3
		c-0.05,6.46-0.43,11.27-1.14,14.44c-0.71,3.17-2,5.94-3.87,8.32l-2.34-1.67c1.76-2.36,2.95-5.21,3.58-8.58
		c0.63-3.36,0.92-7.54,0.89-12.52h-2.06v-3.06h2.06v-5.71h2.88v5.71H596.06z M606.54,135.2h-2.88v-2.13h-2.64v2.13h-2.9v-27.18h8.42
		V135.2z M603.65,129.94v-18.86h-2.64v18.86H603.65z"/>
	<path class="st0" d="M621.51,131.35h-3.02v-2.2h-2.53v2.99h-3.06v-25.7h8.61V131.35z M618.49,126.02v-16.45h-2.53v16.45H618.49z
		 M631.96,121.77c0,3.15-0.57,5.78-1.72,7.88c-1.15,2.1-3.07,4.11-5.77,6.02l-2.2-2.36c3.15-2.18,5.13-4.6,5.94-7.26
		c-2.25,0.88-4.04,1.51-5.36,1.9l-0.84-3.09c2.59-0.74,4.81-1.49,6.66-2.27c0.13-1.09,0.18-2.05,0.16-2.88h-5.38v-3.02h5.38v-4.89
		h-5.87v-3.06h5.87v-4.73h3.13V121.77z M643.4,128.03h-5.94v7.52h-3.13v-31.54h3.13v4.73h5.8v3.06h-5.8v4.89h5.08v3.02h-5.08v5.22
		h5.94V128.03z"/>
	<path class="st0" d="M668.13,121.33l-2.41,2.36c-1.78-2.1-3.8-3.9-6.05-5.41l2.37-2.37C664.13,117.28,666.16,119.09,668.13,121.33z
		"/>
	<path class="st0" d="M715.47,125.58h-13.13v6.56c0,0.83-0.25,1.53-0.76,2.09s-1.06,0.91-1.64,1.03s-1.93,0.18-4.04,0.18
		c-0.94,0-2.14-0.01-3.6-0.04l-0.93-3.16c1.99,0.07,3.59,0.11,4.78,0.11c1.23,0,2.02-0.02,2.37-0.07s0.52-0.45,0.52-1.2v-5.5h-14.8
		v-3.13h14.8v-5.33h-12.88v-3.16h12.88v-4.69c-3.41,0.34-7.55,0.59-12.41,0.76l-1.02-2.95c10.3-0.27,19.08-1.29,26.35-3.06
		l1.85,2.74c-2.57,0.7-6.38,1.4-11.44,2.09v5.12h11.14v3.16h-11.14v5.33h13.13V125.58z"/>
	<path class="st0" d="M730.2,104.53c-0.52,1.46-1.01,2.77-1.49,3.92l-1.53,3.57v23.43h-3.25v-17.93c-0.93,1.29-1.73,2.29-2.41,2.99
		l-1.51-3.34c2.99-3.68,5.3-8.13,6.94-13.36L730.2,104.53z M751.47,111.63h-11.2v5.29h10.37v2.99h-10.37v5.22h10.41v2.94h-10.41
		v7.42h-3.23v-23.85h-1.23c-1.73,3.36-3.46,6.01-5.19,7.95l-2.34-2.23c3.11-3.73,5.46-8.23,7.07-13.5l3.2,0.69
		c-0.18,0.73-0.64,2.1-1.41,4.11h14.33V111.63z"/>
	<path class="st0" d="M760.15,119.06l-2.64,1.3c-0.32-2.64-0.89-5.54-1.72-8.7l2.58-1.27C759.12,113.01,759.71,115.9,760.15,119.06z
		 M767.85,129.12l-2.55,1.97c-0.55-1.17-1.41-2.67-2.57-4.5c-1.22,3.74-2.81,6.84-4.78,9.3l-2.02-2.51
		c3.21-4.1,4.82-9.16,4.82-15.17v-14.06h3.02v7.15c0.4-0.68,0.83-1.63,1.3-2.85l2.64,1.48c-1.17,2.68-2.5,5.1-3.97,7.24
		c-0.04,2.88-0.13,4.74-0.28,5.57C765.39,125.12,766.86,127.24,767.85,129.12z M775.59,127.61c-2.6,3.36-5.14,6.02-7.63,7.98
		l-2.44-2.14c2.64-2.1,5.11-4.66,7.42-7.68L775.59,127.61z M787.43,124.9h-20.55v-2.88h4.75v-8.38h-3.39v-2.85h3.39v-6.57h3.2v6.57
		h5.04v-6.57h3.09v6.57h3.71v2.85h-3.71v8.38h4.46V124.9z M779.84,122.02v-8.38h-4.97v8.38H779.84z M787.71,133.9l-2.65,1.99
		c-1.31-2.14-3.51-4.78-6.59-7.89l2.6-1.9C783.91,128.85,786.12,131.45,787.71,133.9z"/>
	<path class="st0" d="M804.92,111.63c-1.39,2.27-2.98,4.38-4.75,6.33c-0.08,1.96-0.24,3.69-0.47,5.19c2.1,2.65,3.78,5.14,5.04,7.49
		l-2.44,2.23c-0.76-1.69-1.89-3.66-3.39-5.91c-1.16,3.41-2.88,6.3-5.15,8.68l-2.18-2.5c3.64-3.55,5.47-8.78,5.47-15.7v-13.39h3.16
		v9.3c0.93-1.32,1.74-2.63,2.44-3.92L804.92,111.63z M796.26,119.36l-2.78,1.11c-0.25-3-0.77-5.98-1.58-8.93l2.62-1.14
		C795.27,112.83,795.85,115.82,796.26,119.36z M823.47,119.29h-19.79v-2.95h5.19c-0.42-1.28-1.15-2.89-2.2-4.83l2.44-1.48h-4.64
		v-2.99h7.29c-0.36-0.71-0.79-1.39-1.28-2.04l3.13-1.2c0.74,0.95,1.37,2.03,1.9,3.23h7.14v2.99h-3.85l2.34,1.51
		c-0.5,1.37-1.24,2.97-2.2,4.8h4.54V119.29z M821.38,135.52h-3.23v-1.62h-9.18v1.62h-3.22v-13.46h15.63V135.52z M818.14,130.91
		v-5.84h-9.18v5.84H818.14z M818.21,110.03h-8.68c1.02,2.04,1.93,4.14,2.74,6.31h3.23C816.4,114.72,817.3,112.62,818.21,110.03z"/>
</g>
<g>
	<path class="st0" d="M260.78,189.72v-22.73h-8.49v-3.04h20.43v3.04h-8.53v22.73H260.78z"/>
	<path class="st0" d="M274.49,167.59v-3.64h3.16v3.64H274.49z M274.49,189.72v-18.67h3.16v18.67H274.49z"/>
	<path class="st0" d="M294.65,187.42c-1.17,1-2.3,1.7-3.38,2.11s-2.25,0.62-3.49,0.62c-2.05,0-3.63-0.5-4.73-1.5
		s-1.65-2.28-1.65-3.84c0-0.91,0.21-1.75,0.62-2.5s0.96-1.36,1.63-1.82s1.43-0.8,2.28-1.04c0.62-0.16,1.56-0.32,2.81-0.47
		c2.55-0.3,4.44-0.67,5.64-1.09c0.01-0.43,0.02-0.71,0.02-0.83c0-1.29-0.3-2.2-0.9-2.72c-0.81-0.71-2.01-1.07-3.6-1.07
		c-1.49,0-2.59,0.26-3.3,0.78s-1.23,1.44-1.57,2.77l-3.09-0.42c0.28-1.32,0.74-2.39,1.39-3.21s1.58-1.44,2.79-1.88
		s2.63-0.66,4.24-0.66c1.59,0,2.89,0.19,3.88,0.56s1.73,0.85,2.2,1.42s0.8,1.29,0.98,2.15c0.11,0.54,0.16,1.51,0.16,2.92v4.22
		c0,2.94,0.07,4.8,0.2,5.58s0.4,1.53,0.8,2.24h-3.3C294.96,189.07,294.75,188.3,294.65,187.42z M294.39,180.35
		c-1.15,0.47-2.87,0.87-5.17,1.2c-1.3,0.19-2.22,0.4-2.76,0.63s-0.96,0.58-1.25,1.03s-0.44,0.95-0.44,1.5
		c0,0.84,0.32,1.55,0.96,2.11s1.57,0.84,2.8,0.84c1.22,0,2.3-0.27,3.25-0.8s1.65-1.26,2.09-2.19c0.34-0.71,0.51-1.77,0.51-3.16
		V180.35z"/>
	<path class="st0" d="M302.49,189.72v-18.67h2.85v2.65c1.37-2.05,3.35-3.08,5.94-3.08c1.12,0,2.16,0.2,3.1,0.61s1.65,0.93,2.12,1.59
		s0.8,1.44,0.98,2.34c0.12,0.59,0.18,1.61,0.18,3.08v11.48h-3.16v-11.36c0-1.29-0.12-2.25-0.37-2.89s-0.68-1.15-1.31-1.53
		s-1.36-0.57-2.21-0.57c-1.35,0-2.51,0.43-3.49,1.28s-1.47,2.48-1.47,4.87v10.2H302.49z"/>
	<path class="st0" d="M322.37,196.91l-0.35-2.97c0.69,0.19,1.29,0.28,1.81,0.28c0.7,0,1.27-0.12,1.69-0.35s0.77-0.56,1.04-0.98
		c0.2-0.32,0.52-1.1,0.97-2.36c0.06-0.18,0.15-0.43,0.28-0.77l-7.08-18.7h3.41l3.88,10.81c0.5,1.37,0.96,2.81,1.35,4.32
		c0.36-1.45,0.8-2.87,1.3-4.25l3.99-10.88h3.16l-7.1,18.98c-0.76,2.05-1.35,3.46-1.78,4.24c-0.56,1.04-1.21,1.81-1.93,2.29
		s-1.59,0.73-2.6,0.73C323.8,197.3,323.12,197.17,322.37,196.91z"/>
	<path class="st0" d="M352.75,189.72v-2.74c-1.45,2.11-3.43,3.16-5.92,3.16c-1.1,0-2.13-0.21-3.08-0.63s-1.66-0.95-2.13-1.59
		s-0.79-1.42-0.98-2.35c-0.13-0.62-0.19-1.61-0.19-2.95v-11.57h3.16v10.35c0,1.65,0.06,2.77,0.19,3.34c0.2,0.83,0.62,1.49,1.27,1.96
		s1.44,0.71,2.39,0.71s1.84-0.24,2.67-0.73s1.42-1.15,1.77-1.99s0.52-2.05,0.52-3.65v-10h3.16v18.67H352.75z"/>
	<path class="st0" d="M377.55,189.72v-10.92l-9.93-14.85h4.15l5.08,7.77c0.94,1.45,1.81,2.91,2.62,4.36
		c0.77-1.35,1.71-2.87,2.81-4.55l4.99-7.58h3.97l-10.28,14.85v10.92H377.55z"/>
	<path class="st0" d="M404.15,189.72v-2.74c-1.45,2.11-3.43,3.16-5.92,3.16c-1.1,0-2.13-0.21-3.08-0.63s-1.66-0.95-2.13-1.59
		s-0.79-1.42-0.98-2.35c-0.13-0.62-0.19-1.61-0.19-2.95v-11.57H395v10.35c0,1.65,0.06,2.77,0.19,3.34c0.2,0.83,0.62,1.49,1.27,1.96
		s1.44,0.71,2.39,0.71s1.84-0.24,2.67-0.73s1.42-1.15,1.77-1.99s0.52-2.05,0.52-3.65v-10h3.16v18.67H404.15z"/>
	<path class="st0" d="M424.11,187.42c-1.17,1-2.3,1.7-3.38,2.11s-2.25,0.62-3.49,0.62c-2.05,0-3.63-0.5-4.73-1.5
		s-1.65-2.28-1.65-3.84c0-0.91,0.21-1.75,0.62-2.5s0.96-1.36,1.63-1.82s1.43-0.8,2.28-1.04c0.62-0.16,1.56-0.32,2.81-0.47
		c2.55-0.3,4.44-0.67,5.64-1.09c0.01-0.43,0.02-0.71,0.02-0.83c0-1.29-0.3-2.2-0.9-2.72c-0.81-0.71-2.01-1.07-3.6-1.07
		c-1.49,0-2.59,0.26-3.3,0.78s-1.23,1.44-1.57,2.77l-3.09-0.42c0.28-1.32,0.74-2.39,1.39-3.21s1.58-1.44,2.79-1.88
		s2.63-0.66,4.24-0.66c1.59,0,2.89,0.19,3.88,0.56s1.73,0.85,2.2,1.42s0.8,1.29,0.98,2.15c0.11,0.54,0.16,1.51,0.16,2.92v4.22
		c0,2.94,0.07,4.8,0.2,5.58s0.4,1.53,0.8,2.24h-3.3C424.42,189.07,424.21,188.3,424.11,187.42z M423.85,180.35
		c-1.15,0.47-2.87,0.87-5.17,1.2c-1.3,0.19-2.22,0.4-2.76,0.63s-0.96,0.58-1.25,1.03s-0.44,0.95-0.44,1.5
		c0,0.84,0.32,1.55,0.96,2.11s1.57,0.84,2.8,0.84c1.22,0,2.3-0.27,3.25-0.8s1.65-1.26,2.09-2.19c0.34-0.71,0.51-1.77,0.51-3.16
		V180.35z"/>
	<path class="st0" d="M431.95,189.72v-18.67h2.85v2.65c1.37-2.05,3.35-3.08,5.94-3.08c1.12,0,2.16,0.2,3.1,0.61s1.65,0.93,2.12,1.59
		s0.8,1.44,0.98,2.34c0.12,0.59,0.18,1.61,0.18,3.08v11.48h-3.16v-11.36c0-1.29-0.12-2.25-0.37-2.89s-0.68-1.15-1.31-1.53
		s-1.36-0.57-2.21-0.57c-1.35,0-2.51,0.43-3.49,1.28s-1.47,2.48-1.47,4.87v10.2H431.95z"/>
	<path class="st0" d="M462.49,189.72v-25.77h3.41v10.58h13.39v-10.58h3.41v25.77h-3.41v-12.15H465.9v12.15H462.49z"/>
	<path class="st0" d="M486.8,180.39c0-3.46,0.96-6.02,2.88-7.68c1.61-1.38,3.56-2.07,5.87-2.07c2.57,0,4.66,0.84,6.29,2.52
		s2.44,4,2.44,6.97c0,2.4-0.36,4.29-1.08,5.67s-1.77,2.45-3.15,3.21s-2.88,1.14-4.51,1.14c-2.61,0-4.73-0.84-6.34-2.51
		S486.8,183.54,486.8,180.39z M490.05,180.39c0,2.39,0.52,4.18,1.56,5.37s2.36,1.78,3.94,1.78c1.57,0,2.88-0.6,3.92-1.79
		s1.56-3.02,1.56-5.47c0-2.31-0.52-4.06-1.57-5.25s-2.35-1.78-3.91-1.78c-1.58,0-2.89,0.59-3.94,1.78S490.05,178,490.05,180.39z"/>
	<path class="st0" d="M508,189.72v-18.67h2.83v2.62c0.59-0.91,1.37-1.65,2.34-2.21s2.08-0.83,3.32-0.83c1.38,0,2.52,0.29,3.4,0.86
		s1.51,1.38,1.87,2.41c1.48-2.18,3.4-3.27,5.77-3.27c1.85,0,3.28,0.51,4.27,1.54s1.49,2.6,1.49,4.74v12.81h-3.15v-11.76
		c0-1.27-0.1-2.18-0.31-2.73s-0.58-1-1.12-1.34s-1.17-0.51-1.9-0.51c-1.31,0-2.4,0.44-3.27,1.31s-1.3,2.27-1.3,4.19v10.85h-3.16
		v-12.13c0-1.41-0.26-2.46-0.77-3.16s-1.36-1.05-2.53-1.05c-0.89,0-1.71,0.23-2.47,0.7s-1.3,1.15-1.64,2.06s-0.51,2.2-0.51,3.9v9.69
		H508z"/>
	<path class="st0" d="M550.76,183.71l3.27,0.4c-0.52,1.91-1.47,3.39-2.87,4.45s-3.18,1.58-5.34,1.58c-2.73,0-4.9-0.84-6.5-2.52
		s-2.4-4.04-2.4-7.08c0-3.14,0.81-5.58,2.43-7.31s3.71-2.6,6.29-2.6c2.5,0,4.54,0.85,6.12,2.55s2.37,4.09,2.37,7.17
		c0,0.19-0.01,0.47-0.02,0.84H540.2c0.12,2.05,0.7,3.62,1.74,4.71s2.34,1.63,3.9,1.63c1.16,0,2.15-0.3,2.97-0.91
		S550.28,185.05,550.76,183.71z M540.38,178.6h10.42c-0.14-1.57-0.54-2.75-1.2-3.53c-1.01-1.22-2.31-1.83-3.92-1.83
		c-1.45,0-2.67,0.49-3.67,1.46S540.48,176.97,540.38,178.6z"/>
	<path class="st0" d="M556.74,184.15l3.13-0.49c0.18,1.25,0.67,2.21,1.47,2.88s1.92,1,3.37,1c1.45,0,2.53-0.3,3.23-0.89
		s1.05-1.29,1.05-2.08c0-0.71-0.31-1.28-0.93-1.69c-0.43-0.28-1.51-0.64-3.23-1.07c-2.32-0.59-3.93-1.09-4.83-1.52
		s-1.58-1.02-2.04-1.78s-0.69-1.59-0.69-2.5c0-0.83,0.19-1.6,0.57-2.31s0.9-1.3,1.56-1.77c0.49-0.36,1.16-0.67,2.01-0.92
		s1.76-0.38,2.73-0.38c1.46,0,2.75,0.21,3.86,0.63s1.92,0.99,2.45,1.71s0.89,1.68,1.09,2.89l-3.09,0.42
		c-0.14-0.96-0.55-1.71-1.22-2.25s-1.63-0.81-2.86-0.81c-1.45,0-2.49,0.24-3.11,0.72s-0.93,1.04-0.93,1.69
		c0,0.41,0.13,0.78,0.39,1.11c0.26,0.34,0.66,0.62,1.21,0.84c0.32,0.12,1.25,0.39,2.79,0.81c2.24,0.6,3.8,1.09,4.68,1.47
		s1.58,0.93,2.08,1.66s0.76,1.63,0.76,2.71c0,1.05-0.31,2.05-0.92,2.98s-1.5,1.65-2.66,2.16s-2.47,0.76-3.94,0.76
		c-2.43,0-4.27-0.5-5.55-1.51S557.09,186.13,556.74,184.15z"/>
	<path class="st0" d="M582.92,186.89l0.46,2.79c-0.89,0.19-1.69,0.28-2.39,0.28c-1.15,0-2.04-0.18-2.67-0.54s-1.08-0.84-1.34-1.43
		s-0.39-1.84-0.39-3.74v-10.74h-2.32v-2.46h2.32v-4.62l3.15-1.9v6.52h3.18v2.46h-3.18v10.92c0,0.9,0.06,1.48,0.17,1.74
		s0.29,0.46,0.54,0.62s0.61,0.23,1.08,0.23C581.88,187.02,582.34,186.97,582.92,186.89z"/>
	<path class="st0" d="M598.19,187.42c-1.17,1-2.3,1.7-3.38,2.11s-2.25,0.62-3.49,0.62c-2.05,0-3.63-0.5-4.73-1.5
		s-1.65-2.28-1.65-3.84c0-0.91,0.21-1.75,0.62-2.5s0.96-1.36,1.63-1.82s1.43-0.8,2.28-1.04c0.62-0.16,1.56-0.32,2.81-0.47
		c2.55-0.3,4.44-0.67,5.64-1.09c0.01-0.43,0.02-0.71,0.02-0.83c0-1.29-0.3-2.2-0.9-2.72c-0.81-0.71-2.01-1.07-3.6-1.07
		c-1.49,0-2.59,0.26-3.3,0.78s-1.23,1.44-1.57,2.77l-3.09-0.42c0.28-1.32,0.74-2.39,1.39-3.21s1.58-1.44,2.79-1.88
		s2.63-0.66,4.24-0.66c1.59,0,2.89,0.19,3.88,0.56s1.73,0.85,2.2,1.42s0.8,1.29,0.98,2.15c0.11,0.54,0.16,1.51,0.16,2.92v4.22
		c0,2.94,0.07,4.8,0.2,5.58s0.4,1.53,0.8,2.24h-3.3C598.5,189.07,598.28,188.3,598.19,187.42z M597.93,180.35
		c-1.15,0.47-2.87,0.87-5.17,1.2c-1.3,0.19-2.22,0.4-2.76,0.63s-0.96,0.58-1.25,1.03s-0.44,0.95-0.44,1.5
		c0,0.84,0.32,1.55,0.96,2.11s1.57,0.84,2.8,0.84c1.22,0,2.3-0.27,3.25-0.8s1.65-1.26,2.09-2.19c0.34-0.71,0.51-1.77,0.51-3.16
		V180.35z"/>
	<path class="st0" d="M605.89,196.91l-0.35-2.97c0.69,0.19,1.29,0.28,1.81,0.28c0.7,0,1.27-0.12,1.69-0.35s0.77-0.56,1.04-0.98
		c0.2-0.32,0.52-1.1,0.97-2.36c0.06-0.18,0.15-0.43,0.28-0.77l-7.08-18.7h3.41l3.88,10.81c0.5,1.37,0.96,2.81,1.35,4.32
		c0.36-1.45,0.8-2.87,1.3-4.25l3.99-10.88h3.16l-7.1,18.98c-0.76,2.05-1.35,3.46-1.78,4.24c-0.56,1.04-1.21,1.81-1.93,2.29
		s-1.59,0.73-2.6,0.73C607.32,197.3,606.64,197.17,605.89,196.91z"/>
</g>
</svg>
